<svg width="500" height="500" viewBox="0 0 500 500" fill="none" xmlns="http://www.w3.org/2000/svg">
<rect width="500" height="500" fill="white"/>
<path d="M250 34C369.294 34 466 130.706 466 250C466 369.294 369.294 466 250 466C130.706 466 34 369.294 34 250C34 130.706 130.706 34 250 34ZM256.504 40.0625L259.058 60.2129C256.056 60.072 253.036 60 250 60C239.928 60 230.04 60.7863 220.393 62.2959L216.986 47.8848L216.78 47.0127L216.146 47.6465L196.01 67.7812C187.043 70.4339 178.353 73.7305 169.993 77.6172L141.546 75.002L141.151 74.9658L141.025 75.3418L132.607 100.595C127.286 104.782 122.194 109.247 117.353 113.969L115.02 105.997L120.981 84.6348L120.019 84.3652L114.019 105.865L113.98 106.003L114.021 106.141L116.544 114.765C108.114 123.084 100.456 132.185 93.6924 141.951L88.0791 143.239L106.921 113.77L107.413 113H95.5V114H105.587L86.5791 143.73L85.9199 144.761L87.1113 144.487L92.8594 143.168C90.2641 146.978 87.8038 150.887 85.4854 154.889L67.1865 147.536L66.8135 148.464L84.9805 155.764C80.6705 163.295 76.8629 171.15 73.5996 179.282L78.9746 163.158L79.1309 162.688L78.6621 162.527L61.1621 156.527L60.8379 157.473L77.8682 163.312L66.5811 197.172L50.7354 207.076L50.3457 207.319L50.5547 207.729L60.5 227.121V236.118C60.169 240.702 60 245.331 60 250C60 250.35 60.001 250.699 60.0029 251.049C58.8603 251.279 58 252.289 58 253.5C58 254.742 58.9055 255.769 60.0918 255.964C60.3752 265.155 61.3142 274.182 62.8584 283H44V284H63.0361C63.6134 287.195 64.2709 290.362 65.0059 293.5H47V294.5H65.2432C66.1336 298.21 67.1327 301.878 68.2373 305.5H50V306.5H68.542C75.254 328.08 85.7101 348.01 99.1494 365.531L82.749 375.067L83.251 375.933L99.7676 366.329C100.778 367.632 101.804 368.922 102.848 370.197L86.2441 380.07L86.7559 380.93L103.488 370.979C104.255 371.906 105.031 372.824 105.814 373.736L91.1699 386.625L91.8301 387.375L106.467 374.494C107.24 375.385 108.022 376.268 108.812 377.144L99.7109 383.592L99.2549 383.915L99.626 384.332L111.626 397.832L111.966 398.215L112.341 397.866L121.171 389.65C125.827 393.948 130.699 398.015 135.768 401.835L129.142 408.651L128.764 409.04L129.181 409.385L146.681 423.885L147.031 424.176L147.354 423.854L156.034 415.172C158.206 416.41 160.405 417.607 162.63 418.761C160.405 421.349 158.002 424.149 155.989 426.496C155.573 426.186 155.059 426 154.5 426C153.119 426 152 427.119 152 428.5C152 429.881 153.119 431 154.5 431C155.881 431 157 429.881 157 428.5C157 428.044 156.876 427.617 156.662 427.249C158.738 424.828 161.243 421.908 163.542 419.233C166.379 420.686 169.258 422.067 172.175 423.379C172.276 423.63 172.379 423.869 172.487 424.093C172.741 424.616 173.026 425.082 173.35 425.441C173.672 425.8 174.062 426.081 174.523 426.177C175.25 426.327 175.941 425.989 176.595 425.299C178.934 426.28 181.298 427.214 183.685 428.103C183.436 431.767 184.191 434.905 185.556 437.542C188.385 443.008 193.767 446.201 197.851 447.478L197.924 447.5H231.539L231.499 446.962L230.901 439.051C233.75 439.335 236.616 439.557 239.5 439.714V442.209C238.617 442.595 238 443.475 238 444.5C238 445.881 239.119 447 240.5 447C241.881 447 243 445.881 243 444.5C243 443.119 241.881 442 240.5 442V439.766C243.647 439.921 246.814 440 250 440C250.5 440 251 439.997 251.5 439.993V442.209C250.617 442.595 250 443.475 250 444.5C250 445.881 251.119 447 252.5 447C253.881 447 255 445.881 255 444.5C255 443.119 253.881 442 252.5 442V439.983C254.172 439.962 255.839 439.918 257.5 439.854V447.5H286.5V446.5C286.51 446.5 286.537 446.501 286.572 446.508C286.603 446.514 286.674 446.531 286.75 446.584C286.838 446.646 286.922 446.752 286.947 446.896C286.97 447.025 286.935 447.125 286.914 447.173C286.892 447.223 286.867 447.256 286.855 447.27C286.843 447.285 286.833 447.295 286.83 447.298C286.833 447.296 286.838 447.292 286.845 447.287C286.921 447.232 287.086 447.132 287.355 446.985C287.882 446.699 288.719 446.279 289.805 445.755C291.973 444.708 295.1 443.257 298.633 441.643C305.697 438.415 314.37 434.54 320.202 431.957L320.682 431.745L318.454 427.291C328.812 423.289 338.731 418.407 348.12 412.733L351.527 416.968C351.198 417.391 351 417.922 351 418.5C351 419.881 352.119 421 353.5 421C354.881 421 356 419.881 356 418.5C356 417.119 354.881 416 353.5 416C353.059 416 352.646 416.114 352.286 416.314L348.982 412.208C354.811 408.644 360.433 404.775 365.825 400.622L375.61 412.812L376.39 412.188L366.615 400.009C370.616 396.894 374.49 393.624 378.226 390.205L386.113 399.817L386.887 399.183L378.963 389.526C381.488 387.191 383.95 384.789 386.345 382.321L393.667 388.873L394.333 388.127L387.04 381.602C389.407 379.138 391.708 376.61 393.94 374.021L404.873 366.396C405.31 366.771 405.878 367 406.5 367C407.881 367 409 365.881 409 364.5C409 363.119 407.881 362 406.5 362C405.119 362 404 363.119 404 364.5C404 364.897 404.095 365.27 404.26 365.604L396.45 371.052C405.035 360.678 412.536 349.375 418.786 337.319L430.144 348.851L430.856 348.149L419.271 336.385C420.315 334.343 421.322 332.279 422.294 330.195L430.65 338.357L431.35 337.643L422.737 329.231C424.254 325.931 425.679 322.581 427.009 319.182L434.173 325.378L434.827 324.622L427.393 318.192C428.526 315.247 429.588 312.266 430.576 309.252L438.171 315.877L439 316.6V271.222L438.838 271.121C439.305 266.9 439.634 262.637 439.819 258.337L443.725 260.917L444.279 261.283L444.478 260.649C445.323 257.943 446.33 253.252 446.624 247.928C446.895 243.018 446.56 237.537 444.909 232.563C445.567 232.113 446 231.358 446 230.5C446 229.119 444.881 228 443.5 228C442.119 228 441 229.119 441 230.5C441 231.881 442.119 233 443.5 233C443.666 233 443.828 232.982 443.985 232.951C445.561 237.743 445.892 243.058 445.626 247.872C445.359 252.712 444.49 257.012 443.713 259.711L439.866 257.169C439.954 254.79 440 252.4 440 250C440 247.42 439.947 244.851 439.845 242.296C440.337 241.092 440.773 239.827 441.05 238.625C441.358 237.287 441.486 235.973 441.246 234.891C441.062 234.062 440.657 233.357 439.965 232.9C439.986 232.77 440 232.636 440 232.5C440 231.689 439.612 230.97 439.013 230.514C438.145 221.997 436.712 213.647 434.757 205.5H446.5V204.5H434.516C433.392 199.929 432.103 195.423 430.655 190.988L443.538 189.998L443.462 189.002L430.331 190.011C428.422 184.269 426.248 178.649 423.82 173.166L428.228 166.377C428.471 166.456 428.73 166.5 429 166.5C430.381 166.5 431.5 165.381 431.5 164C431.5 162.619 430.381 161.5 429 161.5C427.619 161.5 426.5 162.619 426.5 164C426.5 164.751 426.833 165.423 427.357 165.881L423.335 172.076C420.899 166.667 418.217 161.393 415.304 156.267L419.896 150.305L420.131 150L419.896 149.695L391.396 112.695L391.115 112.331L390.729 112.58L384.977 116.283C381.769 113.046 378.446 109.924 375.015 106.923L379.834 103.711C380.182 103.895 380.579 104 381 104C382.381 104 383.5 102.881 383.5 101.5C383.5 100.119 382.381 99 381 99C379.619 99 378.5 100.119 378.5 101.5C378.5 102.083 378.701 102.617 379.035 103.042L374.235 106.241C371.348 103.744 368.384 101.333 365.349 99.0107L370.14 93.5957C370.531 93.8505 370.998 94 371.5 94C372.881 94 374 92.8807 374 91.5C374 90.1193 372.881 89 371.5 89C370.119 89 369 90.1193 369 91.5C369 92.0164 369.157 92.4962 369.425 92.8945L364.55 98.4053C361.057 95.7622 357.472 93.2363 353.797 90.835L354.998 75.5391L354.002 75.4609L352.844 90.2158C348.672 87.5249 344.388 84.9924 340 82.6279V67.5H339V82.0928C334.363 79.6296 329.611 77.3537 324.755 75.2734L325.499 60.5254L325.534 59.833L300.498 66.7871C292.354 64.5474 283.992 62.833 275.449 61.6895L273.498 40.9531L272.502 41.0469L274.432 61.5566C269.697 60.9489 264.909 60.5153 260.072 60.2627L257.496 39.9375L256.504 40.0625ZM184.663 428.467C187.228 429.406 189.82 430.289 192.436 431.119C192.726 432.785 193.266 434.033 193.739 434.89C194.004 435.369 194.245 435.723 194.404 435.952C194.49 436.075 194.534 436.138 194.556 436.174C194.548 436.158 194.533 436.124 194.524 436.081C194.517 436.047 194.486 435.882 194.598 435.716C194.729 435.521 194.928 435.5 195 435.5V436.5C195.084 436.5 195.292 436.475 195.428 436.273C195.469 436.212 195.488 436.149 195.5 436.093V436.5H213.525C218.903 437.546 224.361 438.366 229.89 438.947L230.46 446.5H198.08C194.173 445.262 189.099 442.211 186.444 437.083C185.21 434.699 184.486 431.84 184.663 428.467ZM319.318 431.255C313.495 433.835 305.095 437.589 298.217 440.732C294.683 442.347 291.548 443.803 289.37 444.854C288.283 445.38 287.426 445.808 286.877 446.106C286.609 446.252 286.391 446.38 286.256 446.479C286.247 446.485 286.239 446.493 286.229 446.5H258.5V439.812C262.233 439.648 265.938 439.377 269.612 439H284.616L284.72 438.949L292.18 435.298C300.866 433.329 309.328 430.768 317.518 427.653L319.318 431.255ZM284.384 438H277.666C281.18 437.487 284.663 436.877 288.112 436.175L284.384 438ZM193.522 431.465C198.503 433.013 203.573 434.36 208.72 435.5H195.5V435.863C195.476 435.764 195.427 435.684 195.414 435.661C195.37 435.587 195.295 435.482 195.226 435.382C195.074 435.163 194.854 434.842 194.614 434.407C194.236 433.721 193.803 432.747 193.522 431.465ZM173.562 423.996C174.236 424.293 174.912 424.585 175.59 424.874C175.208 425.191 174.922 425.239 174.725 425.198C174.543 425.161 174.331 425.036 174.093 424.771C173.915 424.574 173.736 424.314 173.562 423.996ZM136.573 402.44C142.503 406.86 148.7 410.942 155.135 414.657L146.968 422.824L130.235 408.96L136.573 402.44ZM109.487 377.892C110.648 379.166 111.827 380.423 113.021 381.665L110.174 384.121L109.792 384.45L110.124 384.829L113.624 388.829L113.951 389.204L114.327 388.878L117.475 386.148C118.451 387.099 119.438 388.04 120.435 388.97L112.033 396.785L100.744 384.085L109.487 377.892ZM113.717 382.386C114.719 383.417 115.734 384.437 116.759 385.445L114.048 387.796L111.207 384.55L113.717 382.386ZM438 314.399L430.912 308.217C434.082 298.359 436.47 288.152 438 277.665V314.399ZM439.591 233.867C439.935 234.162 440.152 234.578 440.27 235.106C440.462 235.975 440.371 237.117 440.075 238.4C439.978 238.823 439.858 239.255 439.724 239.69C439.625 237.845 439.502 236.007 439.351 234.176C439.438 234.079 439.519 233.977 439.591 233.867ZM67.2168 197.953C64.5699 207.267 62.6155 216.872 61.4131 226.709L51.6543 207.68L67.2168 197.953ZM437 168.5C435.619 168.5 434.5 169.619 434.5 171C434.5 171.677 434.77 172.291 435.208 172.741L429.095 181.207L428.33 182.266L429.606 181.988L441.106 179.488L440.894 178.512L430.669 180.733L436.034 173.306C436.331 173.43 436.657 173.5 437 173.5C438.381 173.5 439.5 172.381 439.5 171C439.5 169.619 438.381 168.5 437 168.5ZM418.868 150L414.768 155.323C406.71 141.331 396.921 128.463 385.693 117.009L390.884 113.668L418.868 150ZM168.212 78.458C156.047 84.2685 144.597 91.3347 134.029 99.4893L141.849 76.0342L168.212 78.458ZM323.775 74.8545C316.837 71.9282 309.687 69.4044 302.357 67.3076L324.466 61.166L323.775 74.8545ZM177.263 67.4814L149.535 65.501L149.465 66.499L177.465 68.499L177.736 68.5186L192.9 48.2998L192.1 47.7002L177.263 67.4814ZM219.402 62.4541C212.123 63.6327 204.981 65.2212 198.003 67.2021L216.22 48.9863L219.402 62.4541ZM285.669 57.2607C285.238 56.5082 284.429 56 283.5 56C282.119 56 281 57.1193 281 58.5C281 59.8807 282.119 61 283.5 61C284.881 61 286 59.8807 286 58.5C286 58.4022 285.992 58.3059 285.981 58.2109L308.652 50.9766L308.348 50.0234L285.669 57.2607Z" fill="url(#paint0_radial_128_6)"/>
<g clip-path="url(#paint1_diamond_128_6_clip_path)" data-figma-skip-parse="true"><g transform="matrix(-1.09457e-09 0.0114442 -0.0204401 -1.06397e-08 268.348 171.618)"><rect x="0" y="0" width="1661.85" height="1070.2" fill="url(#paint1_diamond_128_6)" opacity="1" shape-rendering="crispEdges"/><rect x="0" y="0" width="1661.85" height="1070.2" transform="scale(1 -1)" fill="url(#paint1_diamond_128_6)" opacity="1" shape-rendering="crispEdges"/><rect x="0" y="0" width="1661.85" height="1070.2" transform="scale(-1 1)" fill="url(#paint1_diamond_128_6)" opacity="1" shape-rendering="crispEdges"/><rect x="0" y="0" width="1661.85" height="1070.2" transform="scale(-1)" fill="url(#paint1_diamond_128_6)" opacity="1" shape-rendering="crispEdges"/></g></g><path d="M289.223 153.6V154.6C288.156 154.633 287.34 154.767 286.773 155C286.206 155.2 285.823 155.6 285.623 156.2C285.456 156.767 285.373 157.667 285.373 158.9V183.7C285.373 184.9 285.473 185.8 285.673 186.4C285.873 187 286.24 187.4 286.773 187.6C287.34 187.8 288.156 187.933 289.223 188V189C288.356 188.933 287.256 188.9 285.923 188.9C284.59 188.867 283.24 188.85 281.873 188.85C280.373 188.85 278.956 188.867 277.623 188.9C276.323 188.9 275.273 188.933 274.473 189V188C275.606 187.933 276.456 187.8 277.023 187.6C277.623 187.4 278.023 187 278.223 186.4C278.423 185.8 278.523 184.9 278.523 183.7V156.5L278.873 156.55L266.473 189.15H265.673L252.473 156.8V181.6C252.473 183.2 252.573 184.45 252.773 185.35C252.973 186.217 253.406 186.85 254.073 187.25C254.773 187.617 255.823 187.867 257.223 188V189C256.59 188.933 255.773 188.9 254.773 188.9C253.773 188.867 252.823 188.85 251.923 188.85C251.123 188.85 250.306 188.867 249.473 188.9C248.673 188.9 248.006 188.933 247.473 189V188C248.573 187.867 249.39 187.617 249.923 187.25C250.49 186.883 250.856 186.283 251.023 185.45C251.223 184.617 251.323 183.467 251.323 182V158.9C251.323 157.667 251.223 156.767 251.023 156.2C250.856 155.6 250.49 155.2 249.923 155C249.39 154.767 248.573 154.633 247.473 154.6V153.6C248.006 153.633 248.673 153.667 249.473 153.7C250.306 153.733 251.123 153.75 251.923 153.75C253.156 153.75 254.356 153.733 255.523 153.7C256.69 153.667 257.723 153.633 258.623 153.6L269.373 180.45L268.273 181.35L278.723 153.75C279.223 153.75 279.74 153.75 280.273 153.75C280.84 153.75 281.373 153.75 281.873 153.75C283.24 153.75 284.59 153.733 285.923 153.7C287.256 153.667 288.356 153.633 289.223 153.6Z" data-figma-gradient-fill="{&#34;type&#34;:&#34;GRADIENT_DIAMOND&#34;,&#34;stops&#34;:[{&#34;color&#34;:{&#34;r&#34;:0.53725492954254150,&#34;g&#34;:0.98431372642517090,&#34;b&#34;:0.99215686321258545,&#34;a&#34;:1.0},&#34;position&#34;:0.70673078298568726},{&#34;color&#34;:{&#34;r&#34;:0.050980392843484879,&#34;g&#34;:0.40000000596046448,&#34;b&#34;:0.7294117808341980,&#34;a&#34;:1.0},&#34;position&#34;:0.99989998340606689}],&#34;stopsVar&#34;:[{&#34;color&#34;:{&#34;r&#34;:0.53725492954254150,&#34;g&#34;:0.98431372642517090,&#34;b&#34;:0.99215686321258545,&#34;a&#34;:1.0},&#34;position&#34;:0.70673078298568726},{&#34;color&#34;:{&#34;r&#34;:0.050980392843484879,&#34;g&#34;:0.40000000596046448,&#34;b&#34;:0.7294117808341980,&#34;a&#34;:1.0},&#34;position&#34;:0.99989998340606689}],&#34;transform&#34;:{&#34;m00&#34;:-2.1891421511099907e-06,&#34;m01&#34;:-40.880199432373047,&#34;m02&#34;:288.78811645507812,&#34;m10&#34;:22.888357162475586,&#34;m11&#34;:-2.1279331122059375e-05,&#34;m12&#34;:160.17430114746094},&#34;opacity&#34;:1.0,&#34;blendMode&#34;:&#34;NORMAL&#34;,&#34;visible&#34;:true}"/>
<g clip-path="url(#paint2_diamond_128_6_clip_path)" data-figma-skip-parse="true"><g transform="matrix(-7.11799e-10 0.0113959 -0.0132922 -1.05948e-08 229.248 171.542)"><rect x="0" y="0" width="1662.22" height="1096.51" fill="url(#paint2_diamond_128_6)" opacity="1" shape-rendering="crispEdges"/><rect x="0" y="0" width="1662.22" height="1096.51" transform="scale(1 -1)" fill="url(#paint2_diamond_128_6)" opacity="1" shape-rendering="crispEdges"/><rect x="0" y="0" width="1662.22" height="1096.51" transform="scale(-1 1)" fill="url(#paint2_diamond_128_6)" opacity="1" shape-rendering="crispEdges"/><rect x="0" y="0" width="1662.22" height="1096.51" transform="scale(-1)" fill="url(#paint2_diamond_128_6)" opacity="1" shape-rendering="crispEdges"/></g></g><path d="M241.823 153.6C241.69 154.967 241.59 156.3 241.523 157.6C241.49 158.867 241.473 159.833 241.473 160.5C241.473 161.133 241.49 161.75 241.523 162.35C241.556 162.917 241.59 163.4 241.623 163.8H240.473C240.206 161.5 239.773 159.7 239.173 158.4C238.573 157.067 237.756 156.133 236.723 155.6C235.723 155.033 234.406 154.75 232.773 154.75H230.023C229.023 154.75 228.256 154.833 227.723 155C227.19 155.167 226.823 155.517 226.623 156.05C226.456 156.583 226.373 157.4 226.373 158.5V184.1C226.373 185.167 226.456 185.983 226.623 186.55C226.823 187.083 227.19 187.433 227.723 187.6C228.256 187.767 229.023 187.85 230.023 187.85H232.873C234.573 187.85 235.99 187.533 237.123 186.9C238.29 186.267 239.223 185.233 239.923 183.8C240.623 182.333 241.14 180.333 241.473 177.8H242.623C242.523 178.833 242.473 180.167 242.473 181.8C242.473 182.5 242.49 183.517 242.523 184.85C242.59 186.183 242.69 187.567 242.823 189C241.123 188.933 239.206 188.9 237.073 188.9C234.94 188.867 233.04 188.85 231.373 188.85C230.606 188.85 229.59 188.85 228.323 188.85C227.09 188.85 225.74 188.867 224.273 188.9C222.84 188.9 221.373 188.917 219.873 188.95C218.406 188.95 217.006 188.967 215.673 189V188C216.773 187.933 217.59 187.8 218.123 187.6C218.69 187.4 219.056 187 219.223 186.4C219.423 185.8 219.523 184.9 219.523 183.7V158.9C219.523 157.667 219.423 156.767 219.223 156.2C219.056 155.6 218.69 155.2 218.123 155C217.59 154.767 216.773 154.633 215.673 154.6V153.6C217.006 153.633 218.406 153.667 219.873 153.7C221.373 153.7 222.84 153.717 224.273 153.75C225.74 153.75 227.09 153.75 228.323 153.75C229.59 153.75 230.606 153.75 231.373 153.75C232.906 153.75 234.64 153.75 236.573 153.75C238.54 153.717 240.29 153.667 241.823 153.6ZM233.773 170.7C233.773 170.7 233.773 170.867 233.773 171.2C233.773 171.533 233.773 171.7 233.773 171.7H224.873C224.873 171.7 224.873 171.533 224.873 171.2C224.873 170.867 224.873 170.7 224.873 170.7H233.773ZM235.223 164.1C235.09 166 235.023 167.45 235.023 168.45C235.056 169.45 235.073 170.367 235.073 171.2C235.073 172.033 235.09 172.95 235.123 173.95C235.156 174.95 235.24 176.4 235.373 178.3H234.223C234.056 177.167 233.79 176.1 233.423 175.1C233.09 174.067 232.54 173.25 231.773 172.65C231.04 172.017 229.973 171.7 228.573 171.7V170.7C229.606 170.7 230.44 170.483 231.073 170.05C231.74 169.617 232.273 169.067 232.673 168.4C233.073 167.7 233.373 166.983 233.573 166.25C233.806 165.483 233.973 164.767 234.073 164.1H235.223Z" data-figma-gradient-fill="{&#34;type&#34;:&#34;GRADIENT_DIAMOND&#34;,&#34;stops&#34;:[{&#34;color&#34;:{&#34;r&#34;:0.53725492954254150,&#34;g&#34;:0.98431372642517090,&#34;b&#34;:0.99215686321258545,&#34;a&#34;:1.0},&#34;position&#34;:0.70673078298568726},{&#34;color&#34;:{&#34;r&#34;:0.050980392843484879,&#34;g&#34;:0.40000000596046448,&#34;b&#34;:0.7294117808341980,&#34;a&#34;:1.0},&#34;position&#34;:0.99989998340606689}],&#34;stopsVar&#34;:[{&#34;color&#34;:{&#34;r&#34;:0.53725492954254150,&#34;g&#34;:0.98431372642517090,&#34;b&#34;:0.99215686321258545,&#34;a&#34;:1.0},&#34;position&#34;:0.70673078298568726},{&#34;color&#34;:{&#34;r&#34;:0.050980392843484879,&#34;g&#34;:0.40000000596046448,&#34;b&#34;:0.7294117808341980,&#34;a&#34;:1.0},&#34;position&#34;:0.99989998340606689}],&#34;transform&#34;:{&#34;m00&#34;:-1.4235974958864972e-06,&#34;m01&#34;:-26.584362030029297,&#34;m02&#34;:242.54020690917969,&#34;m10&#34;:22.791780471801758,&#34;m11&#34;:-2.1189543986110948e-05,&#34;m12&#34;:160.14656066894531},&#34;opacity&#34;:1.0,&#34;blendMode&#34;:&#34;NORMAL&#34;,&#34;visible&#34;:true}"/>
<g clip-path="url(#paint3_diamond_128_6_clip_path)" data-figma-skip-parse="true"><g transform="matrix(-7.85207e-10 0.0113959 -0.014663 -1.05948e-08 197.081 171.542)"><rect x="0" y="0" width="1662.22" height="1089.48" fill="url(#paint3_diamond_128_6)" opacity="1" shape-rendering="crispEdges"/><rect x="0" y="0" width="1662.22" height="1089.48" transform="scale(1 -1)" fill="url(#paint3_diamond_128_6)" opacity="1" shape-rendering="crispEdges"/><rect x="0" y="0" width="1662.22" height="1089.48" transform="scale(-1 1)" fill="url(#paint3_diamond_128_6)" opacity="1" shape-rendering="crispEdges"/><rect x="0" y="0" width="1662.22" height="1089.48" transform="scale(-1)" fill="url(#paint3_diamond_128_6)" opacity="1" shape-rendering="crispEdges"/></g></g><path d="M212.056 153.6C211.923 155.133 211.823 156.633 211.756 158.1C211.723 159.533 211.706 160.633 211.706 161.4C211.706 162.167 211.723 162.883 211.756 163.55C211.789 164.217 211.823 164.8 211.856 165.3H210.706C210.239 162.633 209.673 160.55 209.006 159.05C208.339 157.517 207.456 156.417 206.356 155.75C205.289 155.083 203.873 154.75 202.106 154.75H200.506V183.25C200.506 184.617 200.623 185.633 200.856 186.3C201.123 186.967 201.639 187.417 202.406 187.65C203.173 187.85 204.289 187.967 205.756 188V189C204.756 188.933 203.456 188.9 201.856 188.9C200.256 188.867 198.623 188.85 196.956 188.85C195.223 188.85 193.589 188.867 192.056 188.9C190.556 188.9 189.339 188.933 188.406 189V188C189.839 187.967 190.939 187.85 191.706 187.65C192.473 187.417 192.989 186.967 193.256 186.3C193.523 185.633 193.656 184.617 193.656 183.25V154.75H192.006C190.273 154.75 188.856 155.083 187.756 155.75C186.656 156.417 185.773 157.517 185.106 159.05C184.439 160.55 183.889 162.633 183.456 165.3H182.306C182.373 164.8 182.406 164.217 182.406 163.55C182.439 162.883 182.456 162.167 182.456 161.4C182.456 160.633 182.423 159.533 182.356 158.1C182.323 156.633 182.239 155.133 182.106 153.6C183.573 153.633 185.189 153.667 186.956 153.7C188.722 153.733 190.489 153.75 192.256 153.75C194.023 153.75 195.639 153.75 197.106 153.75C198.539 153.75 200.139 153.75 201.906 153.75C203.673 153.75 205.439 153.733 207.206 153.7C208.973 153.667 210.589 153.633 212.056 153.6Z" data-figma-gradient-fill="{&#34;type&#34;:&#34;GRADIENT_DIAMOND&#34;,&#34;stops&#34;:[{&#34;color&#34;:{&#34;r&#34;:0.53725492954254150,&#34;g&#34;:0.98431372642517090,&#34;b&#34;:0.99215686321258545,&#34;a&#34;:1.0},&#34;position&#34;:0.70673078298568726},{&#34;color&#34;:{&#34;r&#34;:0.050980392843484879,&#34;g&#34;:0.40000000596046448,&#34;b&#34;:0.7294117808341980,&#34;a&#34;:1.0},&#34;position&#34;:0.99989998340606689}],&#34;stopsVar&#34;:[{&#34;color&#34;:{&#34;r&#34;:0.53725492954254150,&#34;g&#34;:0.98431372642517090,&#34;b&#34;:0.99215686321258545,&#34;a&#34;:1.0},&#34;position&#34;:0.70673078298568726},{&#34;color&#34;:{&#34;r&#34;:0.050980392843484879,&#34;g&#34;:0.40000000596046448,&#34;b&#34;:0.7294117808341980,&#34;a&#34;:1.0},&#34;position&#34;:0.99989998340606689}],&#34;transform&#34;:{&#34;m00&#34;:-1.5704147244832711e-06,&#34;m01&#34;:-29.326040267944336,&#34;m02&#34;:211.74385070800781,&#34;m10&#34;:22.791780471801758,&#34;m11&#34;:-2.1189543986110948e-05,&#34;m12&#34;:160.14656066894531},&#34;opacity&#34;:1.0,&#34;blendMode&#34;:&#34;NORMAL&#34;,&#34;visible&#34;:true}"/>
<g clip-path="url(#paint4_diamond_128_6_clip_path)" data-figma-skip-parse="true"><g transform="matrix(-6.13484e-10 0.0118144 -0.0114562 -1.09838e-08 166.339 171.601)"><rect x="0" y="0" width="1659.11" height="1108.57" fill="url(#paint4_diamond_128_6)" opacity="1" shape-rendering="crispEdges"/><rect x="0" y="0" width="1659.11" height="1108.57" transform="scale(1 -1)" fill="url(#paint4_diamond_128_6)" opacity="1" shape-rendering="crispEdges"/><rect x="0" y="0" width="1659.11" height="1108.57" transform="scale(-1 1)" fill="url(#paint4_diamond_128_6)" opacity="1" shape-rendering="crispEdges"/><rect x="0" y="0" width="1659.11" height="1108.57" transform="scale(-1)" fill="url(#paint4_diamond_128_6)" opacity="1" shape-rendering="crispEdges"/></g></g><path d="M165.489 153C167.356 153 168.789 153.2 169.789 153.6C170.789 154 171.656 154.433 172.389 154.9C172.789 155.133 173.106 155.317 173.339 155.45C173.606 155.55 173.856 155.6 174.089 155.6C174.422 155.6 174.656 155.417 174.789 155.05C174.956 154.683 175.089 154.133 175.189 153.4H176.339C176.306 154.033 176.256 154.767 176.189 155.6C176.156 156.433 176.122 157.55 176.089 158.95C176.089 160.317 176.089 162.133 176.089 164.4H174.939C174.839 162.7 174.456 161.067 173.789 159.5C173.156 157.933 172.239 156.65 171.039 155.65C169.872 154.617 168.372 154.1 166.539 154.1C164.906 154.1 163.539 154.583 162.439 155.55C161.372 156.517 160.839 157.817 160.839 159.45C160.839 160.85 161.189 162.033 161.889 163C162.589 163.933 163.572 164.85 164.839 165.75C166.139 166.617 167.672 167.617 169.439 168.75C171.072 169.817 172.539 170.883 173.839 171.95C175.139 172.983 176.156 174.133 176.889 175.4C177.656 176.667 178.039 178.217 178.039 180.05C178.039 182.217 177.506 184.017 176.439 185.45C175.372 186.883 173.939 187.95 172.139 188.65C170.339 189.35 168.372 189.7 166.239 189.7C164.272 189.7 162.706 189.5 161.539 189.1C160.406 188.7 159.422 188.283 158.589 187.85C157.856 187.383 157.289 187.15 156.889 187.15C156.556 187.15 156.306 187.333 156.139 187.7C156.006 188.067 155.889 188.617 155.789 189.35H154.639C154.706 188.583 154.739 187.683 154.739 186.65C154.772 185.617 154.789 184.283 154.789 182.65C154.822 180.983 154.839 178.883 154.839 176.35H155.989C156.122 178.483 156.489 180.483 157.089 182.35C157.722 184.183 158.672 185.667 159.939 186.8C161.239 187.933 162.956 188.5 165.089 188.5C166.256 188.5 167.306 188.3 168.239 187.9C169.206 187.467 169.972 186.817 170.539 185.95C171.106 185.05 171.389 183.917 171.389 182.55C171.389 181.183 171.072 179.983 170.439 178.95C169.806 177.917 168.922 176.95 167.789 176.05C166.656 175.15 165.322 174.233 163.789 173.3C162.222 172.3 160.756 171.283 159.389 170.25C158.022 169.217 156.922 168.05 156.089 166.75C155.289 165.417 154.889 163.817 154.889 161.95C154.889 159.883 155.389 158.2 156.389 156.9C157.389 155.567 158.689 154.583 160.289 153.95C161.922 153.317 163.656 153 165.489 153Z" data-figma-gradient-fill="{&#34;type&#34;:&#34;GRADIENT_DIAMOND&#34;,&#34;stops&#34;:[{&#34;color&#34;:{&#34;r&#34;:0.53725492954254150,&#34;g&#34;:0.98431372642517090,&#34;b&#34;:0.99215686321258545,&#34;a&#34;:1.0},&#34;position&#34;:0.70673078298568726},{&#34;color&#34;:{&#34;r&#34;:0.050980392843484879,&#34;g&#34;:0.40000000596046448,&#34;b&#34;:0.7294117808341980,&#34;a&#34;:1.0},&#34;position&#34;:0.99989998340606689}],&#34;stopsVar&#34;:[{&#34;color&#34;:{&#34;r&#34;:0.53725492954254150,&#34;g&#34;:0.98431372642517090,&#34;b&#34;:0.99215686321258545,&#34;a&#34;:1.0},&#34;position&#34;:0.70673078298568726},{&#34;color&#34;:{&#34;r&#34;:0.050980392843484879,&#34;g&#34;:0.40000000596046448,&#34;b&#34;:0.7294117808341980,&#34;a&#34;:1.0},&#34;position&#34;:0.99989998340606689}],&#34;transform&#34;:{&#34;m00&#34;:-1.2269682656551595e-06,&#34;m01&#34;:-22.912496566772461,&#34;m02&#34;:177.79528808593750,&#34;m10&#34;:23.628768920898438,&#34;m11&#34;:-2.1967693101032637e-05,&#34;m12&#34;:159.78700256347656},&#34;opacity&#34;:1.0,&#34;blendMode&#34;:&#34;NORMAL&#34;,&#34;visible&#34;:true}"/>
<g clip-path="url(#paint5_diamond_128_6_clip_path)" data-figma-skip-parse="true"><g transform="matrix(-8.02249e-10 0.0113959 -0.0149812 -1.05948e-08 135.724 171.542)"><rect x="0" y="0" width="1662.22" height="1088.03" fill="url(#paint5_diamond_128_6)" opacity="1" shape-rendering="crispEdges"/><rect x="0" y="0" width="1662.22" height="1088.03" transform="scale(1 -1)" fill="url(#paint5_diamond_128_6)" opacity="1" shape-rendering="crispEdges"/><rect x="0" y="0" width="1662.22" height="1088.03" transform="scale(-1 1)" fill="url(#paint5_diamond_128_6)" opacity="1" shape-rendering="crispEdges"/><rect x="0" y="0" width="1662.22" height="1088.03" transform="scale(-1)" fill="url(#paint5_diamond_128_6)" opacity="1" shape-rendering="crispEdges"/></g></g><path d="M151.024 153.6V154.6C150.357 154.8 149.657 155.317 148.924 156.15C148.19 156.95 147.39 158.2 146.524 159.9L136.874 179.05H135.024L123.324 157.45C122.69 156.283 122.14 155.533 121.674 155.2C121.207 154.833 120.79 154.65 120.424 154.65V153.6C121.224 153.633 122.057 153.683 122.924 153.75C123.824 153.783 124.79 153.8 125.824 153.8C127.157 153.8 128.59 153.783 130.124 153.75C131.657 153.717 133.09 153.667 134.424 153.6V154.65C133.59 154.65 132.84 154.717 132.174 154.85C131.507 154.983 131.057 155.267 130.824 155.7C130.59 156.133 130.674 156.767 131.074 157.6L139.174 173.1L137.974 174.5L143.674 163.2C144.774 161 145.34 159.283 145.374 158.05C145.44 156.817 145.09 155.95 144.324 155.45C143.59 154.917 142.54 154.633 141.174 154.6V153.6C142.274 153.633 143.307 153.667 144.274 153.7C145.274 153.733 146.257 153.75 147.224 153.75C148.024 153.75 148.724 153.733 149.324 153.7C149.957 153.667 150.524 153.633 151.024 153.6ZM139.924 172V183.7C139.924 184.9 140.024 185.8 140.224 186.4C140.424 187 140.79 187.4 141.324 187.6C141.89 187.8 142.707 187.933 143.774 188V189C142.94 188.933 141.857 188.9 140.524 188.9C139.19 188.867 137.857 188.85 136.524 188.85C135.09 188.85 133.707 188.867 132.374 188.9C131.074 188.9 130.024 188.933 129.224 189V188C130.324 187.933 131.14 187.8 131.674 187.6C132.24 187.4 132.607 187 132.774 186.4C132.974 185.8 133.074 184.9 133.074 183.7V173.45L136.874 176.55L139.924 172Z" data-figma-gradient-fill="{&#34;type&#34;:&#34;GRADIENT_DIAMOND&#34;,&#34;stops&#34;:[{&#34;color&#34;:{&#34;r&#34;:0.53725492954254150,&#34;g&#34;:0.98431372642517090,&#34;b&#34;:0.99215686321258545,&#34;a&#34;:1.0},&#34;position&#34;:0.70673078298568726},{&#34;color&#34;:{&#34;r&#34;:0.050980392843484879,&#34;g&#34;:0.40000000596046448,&#34;b&#34;:0.7294117808341980,&#34;a&#34;:1.0},&#34;position&#34;:0.99989998340606689}],&#34;stopsVar&#34;:[{&#34;color&#34;:{&#34;r&#34;:0.53725492954254150,&#34;g&#34;:0.98431372642517090,&#34;b&#34;:0.99215686321258545,&#34;a&#34;:1.0},&#34;position&#34;:0.70673078298568726},{&#34;color&#34;:{&#34;r&#34;:0.050980392843484879,&#34;g&#34;:0.40000000596046448,&#34;b&#34;:0.7294117808341980,&#34;a&#34;:1.0},&#34;position&#34;:0.99989998340606689}],&#34;transform&#34;:{&#34;m00&#34;:-1.6044970152506721e-06,&#34;m01&#34;:-29.962495803833008,&#34;m02&#34;:150.7050781250,&#34;m10&#34;:22.791780471801758,&#34;m11&#34;:-2.1189543986110948e-05,&#34;m12&#34;:160.14656066894531},&#34;opacity&#34;:1.0,&#34;blendMode&#34;:&#34;NORMAL&#34;,&#34;visible&#34;:true}"/>
<g clip-path="url(#paint6_diamond_128_6_clip_path)" data-figma-skip-parse="true"><g transform="matrix(-6.13484e-10 0.0118144 -0.0114562 -1.09838e-08 106.55 171.601)"><rect x="0" y="0" width="1659.11" height="1108.57" fill="url(#paint6_diamond_128_6)" opacity="1" shape-rendering="crispEdges"/><rect x="0" y="0" width="1659.11" height="1108.57" transform="scale(1 -1)" fill="url(#paint6_diamond_128_6)" opacity="1" shape-rendering="crispEdges"/><rect x="0" y="0" width="1659.11" height="1108.57" transform="scale(-1 1)" fill="url(#paint6_diamond_128_6)" opacity="1" shape-rendering="crispEdges"/><rect x="0" y="0" width="1659.11" height="1108.57" transform="scale(-1)" fill="url(#paint6_diamond_128_6)" opacity="1" shape-rendering="crispEdges"/></g></g><path d="M105.7 153C107.567 153 109 153.2 110 153.6C111 154 111.867 154.433 112.6 154.9C113 155.133 113.317 155.317 113.55 155.45C113.817 155.55 114.067 155.6 114.3 155.6C114.633 155.6 114.867 155.417 115 155.05C115.167 154.683 115.3 154.133 115.4 153.4H116.55C116.517 154.033 116.467 154.767 116.4 155.6C116.367 156.433 116.333 157.55 116.3 158.95C116.3 160.317 116.3 162.133 116.3 164.4H115.15C115.05 162.7 114.667 161.067 114 159.5C113.367 157.933 112.45 156.65 111.25 155.65C110.083 154.617 108.583 154.1 106.75 154.1C105.117 154.1 103.75 154.583 102.65 155.55C101.583 156.517 101.05 157.817 101.05 159.45C101.05 160.85 101.4 162.033 102.1 163C102.8 163.933 103.783 164.85 105.05 165.75C106.35 166.617 107.883 167.617 109.65 168.75C111.283 169.817 112.75 170.883 114.05 171.95C115.35 172.983 116.367 174.133 117.1 175.4C117.867 176.667 118.25 178.217 118.25 180.05C118.25 182.217 117.717 184.017 116.65 185.45C115.583 186.883 114.15 187.95 112.35 188.65C110.55 189.35 108.583 189.7 106.45 189.7C104.483 189.7 102.917 189.5 101.75 189.1C100.617 188.7 99.6333 188.283 98.8 187.85C98.0666 187.383 97.5 187.15 97.1 187.15C96.7666 187.15 96.5166 187.333 96.35 187.7C96.2166 188.067 96.1 188.617 96 189.35H94.85C94.9166 188.583 94.95 187.683 94.95 186.65C94.9833 185.617 95 184.283 95 182.65C95.0333 180.983 95.05 178.883 95.05 176.35H96.2C96.3333 178.483 96.7 180.483 97.3 182.35C97.9333 184.183 98.8833 185.667 100.15 186.8C101.45 187.933 103.167 188.5 105.3 188.5C106.467 188.5 107.517 188.3 108.45 187.9C109.417 187.467 110.183 186.817 110.75 185.95C111.317 185.05 111.6 183.917 111.6 182.55C111.6 181.183 111.283 179.983 110.65 178.95C110.017 177.917 109.133 176.95 108 176.05C106.867 175.15 105.533 174.233 104 173.3C102.433 172.3 100.967 171.283 99.6 170.25C98.2333 169.217 97.1333 168.05 96.3 166.75C95.5 165.417 95.1 163.817 95.1 161.95C95.1 159.883 95.6 158.2 96.6 156.9C97.6 155.567 98.9 154.583 100.5 153.95C102.133 153.317 103.867 153 105.7 153Z" data-figma-gradient-fill="{&#34;type&#34;:&#34;GRADIENT_DIAMOND&#34;,&#34;stops&#34;:[{&#34;color&#34;:{&#34;r&#34;:0.53725492954254150,&#34;g&#34;:0.98431372642517090,&#34;b&#34;:0.99215686321258545,&#34;a&#34;:1.0},&#34;position&#34;:0.70673078298568726},{&#34;color&#34;:{&#34;r&#34;:0.050980392843484879,&#34;g&#34;:0.40000000596046448,&#34;b&#34;:0.7294117808341980,&#34;a&#34;:1.0},&#34;position&#34;:0.99989998340606689}],&#34;stopsVar&#34;:[{&#34;color&#34;:{&#34;r&#34;:0.53725492954254150,&#34;g&#34;:0.98431372642517090,&#34;b&#34;:0.99215686321258545,&#34;a&#34;:1.0},&#34;position&#34;:0.70673078298568726},{&#34;color&#34;:{&#34;r&#34;:0.050980392843484879,&#34;g&#34;:0.40000000596046448,&#34;b&#34;:0.7294117808341980,&#34;a&#34;:1.0},&#34;position&#34;:0.99989998340606689}],&#34;transform&#34;:{&#34;m00&#34;:-1.2269682656551595e-06,&#34;m01&#34;:-22.912496566772461,&#34;m02&#34;:118.00622558593750,&#34;m10&#34;:23.628768920898438,&#34;m11&#34;:-2.1967693101032637e-05,&#34;m12&#34;:159.78700256347656},&#34;opacity&#34;:1.0,&#34;blendMode&#34;:&#34;NORMAL&#34;,&#34;visible&#34;:true}"/>
<path d="M263.243 198.6C264.077 198.633 265.143 198.667 266.443 198.7C267.743 198.733 269.043 198.75 270.343 198.75C271.977 198.75 273.527 198.733 274.993 198.7C276.46 198.667 277.493 198.65 278.093 198.65C281.093 198.65 283.56 199.017 285.493 199.75C287.46 200.45 288.927 201.45 289.893 202.75C290.86 204.05 291.343 205.583 291.343 207.35C291.343 208.45 291.127 209.583 290.693 210.75C290.26 211.883 289.51 212.933 288.443 213.9C287.377 214.867 285.91 215.667 284.043 216.3C282.21 216.9 279.86 217.2 276.993 217.2H272.193V216.2H276.493C278.593 216.2 280.193 215.833 281.293 215.1C282.427 214.333 283.177 213.333 283.543 212.1C283.943 210.833 284.143 209.433 284.143 207.9C284.143 205.267 283.627 203.233 282.593 201.8C281.56 200.333 279.777 199.6 277.243 199.6C275.877 199.6 274.977 199.883 274.543 200.45C274.143 201.017 273.943 202.167 273.943 203.9V228.7C273.943 229.9 274.043 230.8 274.243 231.4C274.443 232 274.81 232.4 275.343 232.6C275.91 232.8 276.727 232.933 277.793 233V234C276.96 233.933 275.893 233.9 274.593 233.9C273.293 233.867 271.977 233.85 270.643 233.85C269.143 233.85 267.743 233.867 266.443 233.9C265.143 233.9 264.077 233.933 263.243 234V233C264.343 232.933 265.16 232.8 265.693 232.6C266.26 232.4 266.627 232 266.793 231.4C266.993 230.8 267.093 229.9 267.093 228.7V203.9C267.093 202.667 266.993 201.767 266.793 201.2C266.627 200.6 266.26 200.2 265.693 200C265.16 199.767 264.343 199.633 263.243 199.6V198.6ZM272.193 216.35C273.76 216.417 275.06 216.5 276.093 216.6C277.16 216.667 278.06 216.733 278.793 216.8C279.56 216.867 280.243 216.95 280.843 217.05C283.61 217.317 285.643 217.967 286.943 219C288.277 220 289.16 221.533 289.593 223.6L290.743 228.75C291.043 230.117 291.36 231.1 291.693 231.7C292.06 232.267 292.577 232.533 293.243 232.5C293.71 232.5 294.11 232.383 294.443 232.15C294.777 231.883 295.11 231.533 295.443 231.1L296.143 231.7C295.31 232.733 294.427 233.5 293.493 234C292.56 234.467 291.377 234.7 289.943 234.7C288.343 234.7 286.993 234.333 285.893 233.6C284.793 232.833 284.043 231.4 283.643 229.3L282.693 224.3C282.427 222.9 282.11 221.667 281.743 220.6C281.41 219.533 280.943 218.7 280.343 218.1C279.743 217.5 278.86 217.2 277.693 217.2H272.293L272.193 216.35Z" fill="#0D304E"/>
<path d="M257.643 198.6C257.51 199.967 257.41 201.3 257.343 202.6C257.31 203.867 257.293 204.833 257.293 205.5C257.293 206.133 257.31 206.75 257.343 207.35C257.377 207.917 257.41 208.4 257.443 208.8H256.293C256.027 206.5 255.593 204.7 254.993 203.4C254.393 202.067 253.577 201.133 252.543 200.6C251.543 200.033 250.227 199.75 248.593 199.75H245.843C244.843 199.75 244.077 199.833 243.543 200C243.01 200.167 242.643 200.517 242.443 201.05C242.277 201.583 242.193 202.4 242.193 203.5V229.1C242.193 230.167 242.277 230.983 242.443 231.55C242.643 232.083 243.01 232.433 243.543 232.6C244.077 232.767 244.843 232.85 245.843 232.85H248.693C250.393 232.85 251.81 232.533 252.943 231.9C254.11 231.267 255.043 230.233 255.743 228.8C256.443 227.333 256.96 225.333 257.293 222.8H258.443C258.343 223.833 258.293 225.167 258.293 226.8C258.293 227.5 258.31 228.517 258.343 229.85C258.41 231.183 258.51 232.567 258.643 234C256.943 233.933 255.027 233.9 252.893 233.9C250.76 233.867 248.86 233.85 247.193 233.85C246.427 233.85 245.41 233.85 244.143 233.85C242.91 233.85 241.56 233.867 240.093 233.9C238.66 233.9 237.193 233.917 235.693 233.95C234.227 233.95 232.827 233.967 231.493 234V233C232.593 232.933 233.41 232.8 233.943 232.6C234.51 232.4 234.877 232 235.043 231.4C235.243 230.8 235.343 229.9 235.343 228.7V203.9C235.343 202.667 235.243 201.767 235.043 201.2C234.877 200.6 234.51 200.2 233.943 200C233.41 199.767 232.593 199.633 231.493 199.6V198.6C232.827 198.633 234.227 198.667 235.693 198.7C237.193 198.7 238.66 198.717 240.093 198.75C241.56 198.75 242.91 198.75 244.143 198.75C245.41 198.75 246.427 198.75 247.193 198.75C248.727 198.75 250.46 198.75 252.393 198.75C254.36 198.717 256.11 198.667 257.643 198.6ZM249.593 215.7C249.593 215.7 249.593 215.867 249.593 216.2C249.593 216.533 249.593 216.7 249.593 216.7H240.693C240.693 216.7 240.693 216.533 240.693 216.2C240.693 215.867 240.693 215.7 240.693 215.7H249.593ZM251.043 209.1C250.91 211 250.843 212.45 250.843 213.45C250.877 214.45 250.893 215.367 250.893 216.2C250.893 217.033 250.91 217.95 250.943 218.95C250.977 219.95 251.06 221.4 251.193 223.3H250.043C249.877 222.167 249.61 221.1 249.243 220.1C248.91 219.067 248.36 218.25 247.593 217.65C246.86 217.017 245.793 216.7 244.393 216.7V215.7C245.427 215.7 246.26 215.483 246.893 215.05C247.56 214.617 248.093 214.067 248.493 213.4C248.893 212.7 249.193 211.983 249.393 211.25C249.627 210.483 249.793 209.767 249.893 209.1H251.043Z" fill="#0D304E"/>
<path d="M208.392 198.6C214.792 198.6 219.526 200.1 222.592 203.1C225.692 206.067 227.242 210.333 227.242 215.9C227.242 219.533 226.476 222.717 224.942 225.45C223.442 228.15 221.259 230.25 218.392 231.75C215.526 233.25 212.042 234 207.942 234C207.442 234 206.759 233.983 205.892 233.95C205.059 233.917 204.176 233.9 203.242 233.9C202.342 233.867 201.509 233.85 200.742 233.85C199.376 233.85 198.042 233.867 196.742 233.9C195.442 233.9 194.376 233.933 193.542 234V233C194.642 232.933 195.459 232.8 195.992 232.6C196.559 232.4 196.926 232 197.092 231.4C197.292 230.8 197.392 229.9 197.392 228.7V203.9C197.392 202.667 197.292 201.767 197.092 201.2C196.926 200.6 196.559 200.2 195.992 200C195.459 199.767 194.642 199.633 193.542 199.6V198.6C194.376 198.633 195.442 198.683 196.742 198.75C198.042 198.783 199.342 198.783 200.642 198.75C201.842 198.717 203.192 198.683 204.692 198.65C206.192 198.617 207.426 198.6 208.392 198.6ZM207.942 199.5C206.409 199.5 205.409 199.783 204.942 200.35C204.476 200.917 204.242 202.067 204.242 203.8V228.8C204.242 230.533 204.476 231.683 204.942 232.25C205.442 232.817 206.459 233.1 207.992 233.1C211.092 233.1 213.509 232.45 215.242 231.15C217.009 229.817 218.242 227.883 218.942 225.35C219.676 222.817 220.042 219.733 220.042 216.1C220.042 212.367 219.642 209.283 218.842 206.85C218.076 204.383 216.809 202.55 215.042 201.35C213.276 200.117 210.909 199.5 207.942 199.5Z" fill="#0D304E"/>
<path d="M177.105 198.45L189.255 229.8C189.755 231 190.288 231.833 190.855 232.3C191.455 232.733 192.005 232.967 192.505 233V234C191.638 233.933 190.588 233.9 189.355 233.9C188.155 233.867 186.922 233.85 185.655 233.85C184.188 233.85 182.822 233.867 181.555 233.9C180.288 233.9 179.255 233.933 178.455 234V233C180.155 232.933 181.238 232.65 181.705 232.15C182.172 231.617 182.072 230.5 181.405 228.8L172.605 205.05L173.505 203.95L165.505 224.7C164.872 226.367 164.488 227.733 164.355 228.8C164.222 229.867 164.305 230.7 164.605 231.3C164.905 231.9 165.405 232.333 166.105 232.6C166.805 232.833 167.672 232.967 168.705 233V234C167.638 233.933 166.605 233.9 165.605 233.9C164.605 233.867 163.605 233.85 162.605 233.85C161.872 233.85 161.172 233.867 160.505 233.9C159.872 233.9 159.305 233.933 158.805 234V233C159.538 232.833 160.255 232.4 160.955 231.7C161.688 231 162.388 229.783 163.055 228.05L174.505 198.45C174.905 198.483 175.338 198.5 175.805 198.5C176.272 198.5 176.705 198.483 177.105 198.45ZM181.455 219.6V220.6H166.555L167.055 219.6H181.455Z" fill="#0D304E"/>
<path d="M126.917 198.6C127.751 198.633 128.817 198.667 130.117 198.7C131.417 198.733 132.717 198.75 134.017 198.75C135.651 198.75 137.201 198.733 138.667 198.7C140.134 198.667 141.167 198.65 141.767 198.65C144.767 198.65 147.234 199.017 149.167 199.75C151.134 200.45 152.601 201.45 153.567 202.75C154.534 204.05 155.017 205.583 155.017 207.35C155.017 208.45 154.801 209.583 154.367 210.75C153.934 211.883 153.184 212.933 152.117 213.9C151.051 214.867 149.584 215.667 147.717 216.3C145.884 216.9 143.534 217.2 140.667 217.2H135.867V216.2H140.167C142.267 216.2 143.867 215.833 144.967 215.1C146.101 214.333 146.851 213.333 147.217 212.1C147.617 210.833 147.817 209.433 147.817 207.9C147.817 205.267 147.301 203.233 146.267 201.8C145.234 200.333 143.451 199.6 140.917 199.6C139.551 199.6 138.651 199.883 138.217 200.45C137.817 201.017 137.617 202.167 137.617 203.9V228.7C137.617 229.9 137.717 230.8 137.917 231.4C138.117 232 138.484 232.4 139.017 232.6C139.584 232.8 140.401 232.933 141.467 233V234C140.634 233.933 139.567 233.9 138.267 233.9C136.967 233.867 135.651 233.85 134.317 233.85C132.817 233.85 131.417 233.867 130.117 233.9C128.817 233.9 127.751 233.933 126.917 234V233C128.017 232.933 128.834 232.8 129.367 232.6C129.934 232.4 130.301 232 130.467 231.4C130.667 230.8 130.767 229.9 130.767 228.7V203.9C130.767 202.667 130.667 201.767 130.467 201.2C130.301 200.6 129.934 200.2 129.367 200C128.834 199.767 128.017 199.633 126.917 199.6V198.6ZM135.867 216.35C137.434 216.417 138.734 216.5 139.767 216.6C140.834 216.667 141.734 216.733 142.467 216.8C143.234 216.867 143.917 216.95 144.517 217.05C147.284 217.317 149.317 217.967 150.617 219C151.951 220 152.834 221.533 153.267 223.6L154.417 228.75C154.717 230.117 155.034 231.1 155.367 231.7C155.734 232.267 156.251 232.533 156.917 232.5C157.384 232.5 157.784 232.383 158.117 232.15C158.451 231.883 158.784 231.533 159.117 231.1L159.817 231.7C158.984 232.733 158.101 233.5 157.167 234C156.234 234.467 155.051 234.7 153.617 234.7C152.017 234.7 150.667 234.333 149.567 233.6C148.467 232.833 147.717 231.4 147.317 229.3L146.367 224.3C146.101 222.9 145.784 221.667 145.417 220.6C145.084 219.533 144.617 218.7 144.017 218.1C143.417 217.5 142.534 217.2 141.367 217.2H135.967L135.867 216.35Z" fill="#0D304E"/>
<path d="M123.3 198.6C123.167 200.133 123.067 201.633 123 203.1C122.967 204.533 122.95 205.633 122.95 206.4C122.95 207.167 122.967 207.883 123 208.55C123.033 209.217 123.067 209.8 123.1 210.3H121.95C121.483 207.633 120.917 205.55 120.25 204.05C119.583 202.517 118.7 201.417 117.6 200.75C116.533 200.083 115.117 199.75 113.35 199.75H111.75V228.25C111.75 229.617 111.867 230.633 112.1 231.3C112.367 231.967 112.883 232.417 113.65 232.65C114.417 232.85 115.533 232.967 117 233V234C116 233.933 114.7 233.9 113.1 233.9C111.5 233.867 109.867 233.85 108.2 233.85C106.467 233.85 104.833 233.867 103.3 233.9C101.8 233.9 100.583 233.933 99.65 234V233C101.083 232.967 102.183 232.85 102.95 232.65C103.717 232.417 104.233 231.967 104.5 231.3C104.767 230.633 104.9 229.617 104.9 228.25V199.75H103.25C101.517 199.75 100.1 200.083 99 200.75C97.9 201.417 97.0166 202.517 96.35 204.05C95.6833 205.55 95.1333 207.633 94.7 210.3H93.55C93.6166 209.8 93.65 209.217 93.65 208.55C93.6833 207.883 93.7 207.167 93.7 206.4C93.7 205.633 93.6666 204.533 93.6 203.1C93.5666 201.633 93.4833 200.133 93.35 198.6C94.8166 198.633 96.4333 198.667 98.2 198.7C99.9666 198.733 101.733 198.75 103.5 198.75C105.267 198.75 106.883 198.75 108.35 198.75C109.783 198.75 111.383 198.75 113.15 198.75C114.917 198.75 116.683 198.733 118.45 198.7C120.217 198.667 121.833 198.633 123.3 198.6Z" fill="#0D304E"/>
<path d="M388.646 197.9C390.88 197.9 392.696 198.233 394.096 198.9C395.496 199.533 396.78 200.283 397.946 201.15C398.346 201.483 398.68 201.65 398.946 201.65C399.58 201.65 399.996 200.633 400.196 198.6H401.346C401.28 199.867 401.23 201.417 401.196 203.25C401.163 205.083 401.146 207.5 401.146 210.5H399.996C399.763 208.7 399.43 207.083 398.996 205.65C398.563 204.217 397.78 203 396.646 202C395.78 201.067 394.68 200.35 393.346 199.85C392.046 199.317 390.73 199.05 389.396 199.05C387.63 199.05 386.08 199.517 384.746 200.45C383.446 201.35 382.346 202.6 381.446 204.2C380.58 205.767 379.93 207.6 379.496 209.7C379.063 211.767 378.846 213.983 378.846 216.35C378.846 222.35 379.713 226.75 381.446 229.55C383.213 232.317 385.796 233.7 389.196 233.7C390.13 233.7 390.93 233.583 391.596 233.35C392.296 233.083 392.863 232.817 393.296 232.55C393.83 232.183 394.18 231.8 394.346 231.4C394.513 231 394.596 230.5 394.596 229.9V225C394.596 223.533 394.463 222.45 394.196 221.75C393.93 221.017 393.43 220.517 392.696 220.25C391.996 219.983 390.946 219.833 389.546 219.8V218.8C390.213 218.833 390.996 218.867 391.896 218.9C392.83 218.9 393.796 218.917 394.796 218.95C395.83 218.95 396.763 218.95 397.596 218.95C398.896 218.95 400.08 218.933 401.146 218.9C402.213 218.867 403.096 218.833 403.796 218.8V219.8C403.13 219.833 402.613 219.95 402.246 220.15C401.913 220.35 401.696 220.75 401.596 221.35C401.496 221.95 401.446 222.867 401.446 224.1V234H400.446C400.413 233.433 400.28 232.817 400.046 232.15C399.813 231.483 399.463 231.15 398.996 231.15C398.763 231.15 398.496 231.217 398.196 231.35C397.896 231.45 397.38 231.7 396.646 232.1C395.48 232.867 394.23 233.5 392.896 234C391.596 234.467 390.163 234.7 388.596 234.7C384.863 234.7 381.696 234 379.096 232.6C376.53 231.167 374.58 229.117 373.246 226.45C371.913 223.75 371.246 220.533 371.246 216.8C371.246 212.967 371.996 209.633 373.496 206.8C374.996 203.967 377.046 201.783 379.646 200.25C382.28 198.683 385.28 197.9 388.646 197.9Z" fill="#29F404"/>
<path d="M349.527 197.9C352.927 197.9 355.91 198.617 358.477 200.05C361.044 201.483 363.027 203.55 364.427 206.25C365.86 208.917 366.577 212.167 366.577 216C366.577 219.733 365.844 223 364.377 225.8C362.944 228.6 360.927 230.783 358.327 232.35C355.76 233.917 352.81 234.7 349.477 234.7C346.077 234.7 343.094 233.983 340.527 232.55C337.96 231.117 335.96 229.05 334.527 226.35C333.127 223.65 332.427 220.4 332.427 216.6C332.427 212.867 333.16 209.6 334.627 206.8C336.094 204 338.11 201.817 340.677 200.25C343.244 198.683 346.194 197.9 349.527 197.9ZM349.327 198.8C347.36 198.8 345.644 199.55 344.177 201.05C342.744 202.55 341.627 204.617 340.827 207.25C340.027 209.883 339.627 212.933 339.627 216.4C339.627 219.933 340.077 223.017 340.977 225.65C341.877 228.25 343.094 230.267 344.627 231.7C346.16 233.1 347.844 233.8 349.677 233.8C351.644 233.8 353.344 233.05 354.777 231.55C356.244 230.05 357.377 227.983 358.177 225.35C358.977 222.683 359.377 219.633 359.377 216.2C359.377 212.633 358.927 209.55 358.027 206.95C357.127 204.35 355.91 202.35 354.377 200.95C352.877 199.517 351.194 198.8 349.327 198.8Z" fill="#29F404"/>
<path d="M316.55 198.6V199.6C315.417 199.633 314.55 199.767 313.95 200C313.383 200.2 313 200.6 312.8 201.2C312.6 201.767 312.5 202.667 312.5 203.9V229.1C312.5 230.167 312.583 230.983 312.75 231.55C312.95 232.083 313.3 232.433 313.8 232.6C314.3 232.767 315.017 232.85 315.95 232.85H318.8C320.1 232.85 321.233 232.617 322.2 232.15C323.2 231.683 324.067 231 324.8 230.1C325.533 229.2 326.133 228.1 326.6 226.8C327.067 225.467 327.4 223.967 327.6 222.3H328.75C328.65 223.4 328.6 224.833 328.6 226.6C328.6 227.333 328.617 228.383 328.65 229.75C328.717 231.117 328.817 232.533 328.95 234C327.25 233.933 325.333 233.9 323.2 233.9C321.067 233.867 319.167 233.85 317.5 233.85C316.7 233.85 315.683 233.85 314.45 233.85C313.217 233.85 311.867 233.867 310.4 233.9C308.967 233.9 307.5 233.917 306 233.95C304.533 233.95 303.133 233.967 301.8 234V233C302.9 232.933 303.717 232.8 304.25 232.6C304.817 232.4 305.183 232 305.35 231.4C305.55 230.8 305.65 229.9 305.65 228.7V203.9C305.65 202.667 305.55 201.767 305.35 201.2C305.183 200.6 304.817 200.2 304.25 200C303.717 199.767 302.9 199.633 301.8 199.6V198.6C302.633 198.633 303.7 198.667 305 198.7C306.3 198.733 307.7 198.75 309.2 198.75C310.567 198.75 311.917 198.733 313.25 198.7C314.583 198.667 315.683 198.633 316.55 198.6Z" fill="#29F404"/>
<rect x="132" y="327" width="14" height="23" stroke="#D21F18" stroke-width="2"/>
<line x1="139" y1="291" x2="139" y2="328" stroke="#D21F18" stroke-width="2"/>
<line x1="139" y1="349" x2="139" y2="363" stroke="#D21F18" stroke-width="2"/>
<rect x="232" y="296" width="14" height="43" stroke="#D21F18" stroke-width="2"/>
<line x1="239" y1="268" x2="239" y2="297" stroke="#D21F18" stroke-width="2"/>
<line x1="239" y1="338" x2="239" y2="363" stroke="#D21F18" stroke-width="2"/>
<rect x="157" y="315" width="14" height="28" stroke="#22EE1B" stroke-width="2"/>
<line x1="164" y1="279" x2="164" y2="316" stroke="#22EE1B" stroke-width="2"/>
<line x1="164" y1="342" x2="164" y2="363" stroke="#22EE1B" stroke-width="2"/>
<rect x="182" y="310" width="14" height="19" stroke="#22EE1B" stroke-width="2"/>
<line x1="189" y1="295" x2="189" y2="311" stroke="#22EE1B" stroke-width="2"/>
<line x1="189" y1="328" x2="189" y2="363" stroke="#22EE1B" stroke-width="2"/>
<rect x="207" y="305" width="14" height="37" stroke="#22EE1B" stroke-width="2"/>
<line x1="214" y1="290" x2="214" y2="306" stroke="#22EE1B" stroke-width="2"/>
<line x1="214" y1="341" x2="214" y2="363" stroke="#22EE1B" stroke-width="2"/>
<line x1="129" y1="364" x2="249" y2="364" stroke="#0D304E" stroke-width="2" stroke-linecap="round"/>
<path d="M260 364C259.448 364 259 364.448 259 365C259 365.552 259.448 366 260 366V365V364ZM404.897 252L399.18 262.033L410.727 261.967L404.897 252ZM260 365V366H318.815V365V364H260V365ZM318.815 365V366C364.059 366 404.298 319.838 405.947 261.024L404.948 260.996L403.948 260.968C402.319 319.085 362.628 364 318.815 364V365Z" fill="#22EE1B"/>
<g clip-path="url(#paint7_diamond_128_6_clip_path)" data-figma-skip-parse="true"><g transform="matrix(-0.0365 0 0 0.0269966 292 305.5)"><rect x="0" y="0" width="821.918" height="1611.31" fill="url(#paint7_diamond_128_6)" opacity="1" shape-rendering="crispEdges"/><rect x="0" y="0" width="821.918" height="1611.31" transform="scale(1 -1)" fill="url(#paint7_diamond_128_6)" opacity="1" shape-rendering="crispEdges"/><rect x="0" y="0" width="821.918" height="1611.31" transform="scale(-1 1)" fill="url(#paint7_diamond_128_6)" opacity="1" shape-rendering="crispEdges"/><rect x="0" y="0" width="821.918" height="1611.31" transform="scale(-1)" fill="url(#paint7_diamond_128_6)" opacity="1" shape-rendering="crispEdges"/></g></g><path d="M292 275L292.755 274.344L292.456 274H292V275ZM279.901 275V274H279.494L279.202 274.284L279.901 275ZM264 290.521L263.301 289.805L263 290.1V290.521H264ZM264 312.078H263V312.491L263.292 312.784L264 312.078ZM298.81 347L298.102 347.706L299.169 348.776L299.737 347.376L298.81 347ZM305.5 330.5L306.427 330.876L306.5 330.695V330.5H305.5ZM305.5 290.521H306.5V290.147L306.255 289.865L305.5 290.521ZM275.603 323.719L274.895 324.425L274.895 324.425L275.603 323.719ZM292 275V274H279.901V275V276H292V275ZM264 290.521H263V312.078H264H265V290.521H264ZM298.81 347L299.737 347.376L306.427 330.876L305.5 330.5L304.573 330.124L297.883 346.624L298.81 347ZM305.5 290.521L306.255 289.865L292.755 274.344L292 275L291.245 275.656L304.745 291.177L305.5 290.521ZM264 312.078L263.292 312.784L274.895 324.425L275.603 323.719L276.312 323.013L264.708 311.372L264 312.078ZM275.603 323.719L274.895 324.425L298.102 347.706L298.81 347L299.518 346.294L276.312 323.013L275.603 323.719ZM279.901 275L279.202 274.284L274.905 278.479L275.603 279.195L276.302 279.91L280.599 275.716L279.901 275ZM275.603 279.195L274.905 278.479L263.301 289.805L264 290.521L264.699 291.237L276.302 279.91L275.603 279.195ZM305.5 330.5H306.5V314.5H305.5H304.5V330.5H305.5ZM305.5 314.5H306.5V290.521H305.5H304.5V314.5H305.5ZM275.603 279.195L274.907 279.912L298.113 302.448L298.81 301.731L299.507 301.013L276.3 278.477L275.603 279.195ZM298.81 301.731L297.924 302.195L304.614 314.964L305.5 314.5L306.386 314.036L299.696 301.266L298.81 301.731ZM305.5 290.521L304.641 290.008L297.951 301.218L298.81 301.731L299.669 302.243L306.359 291.033L305.5 290.521ZM298.81 301.731L298.122 301.005L274.916 322.993L275.603 323.719L276.291 324.444L299.498 302.456L298.81 301.731ZM298.81 301.731H297.81V347H298.81H299.81V301.731H298.81Z" data-figma-gradient-fill="{&#34;type&#34;:&#34;GRADIENT_DIAMOND&#34;,&#34;stops&#34;:[{&#34;color&#34;:{&#34;r&#34;:0.53725492954254150,&#34;g&#34;:0.98431372642517090,&#34;b&#34;:0.99215686321258545,&#34;a&#34;:1.0},&#34;position&#34;:0.52884614467620850},{&#34;color&#34;:{&#34;r&#34;:0.050980392843484879,&#34;g&#34;:0.40000000596046448,&#34;b&#34;:0.7294117808341980,&#34;a&#34;:1.0},&#34;position&#34;:0.99989998340606689}],&#34;stopsVar&#34;:[{&#34;color&#34;:{&#34;r&#34;:0.53725492954254150,&#34;g&#34;:0.98431372642517090,&#34;b&#34;:0.99215686321258545,&#34;a&#34;:1.0},&#34;position&#34;:0.52884614467620850},{&#34;color&#34;:{&#34;r&#34;:0.050980392843484879,&#34;g&#34;:0.40000000596046448,&#34;b&#34;:0.7294117808341980,&#34;a&#34;:1.0},&#34;position&#34;:0.99989998340606689}],&#34;transform&#34;:{&#34;m00&#34;:-73.0,&#34;m01&#34;:3.6764135572658896e-13,&#34;m02&#34;:328.50,&#34;m10&#34;:1.4773012186383022e-13,&#34;m11&#34;:53.993171691894531,&#34;m12&#34;:278.503417968750},&#34;opacity&#34;:1.0,&#34;blendMode&#34;:&#34;NORMAL&#34;,&#34;visible&#34;:true}"/>
<path d="M338.5 276.5L348.644 287.02C350.74 289.193 351.459 292.3 351.715 295.308C351.884 297.287 352.365 299.222 352.998 301M338.5 276.5L327.216 274.485C325.446 274.169 323.622 274.39 321.979 275.121L316.345 277.625C313.095 279.069 311 282.292 311 285.849V318.5V330.672C311 333.118 311.995 335.459 313.757 337.155L321.886 344.983C323.563 346.598 325.801 347.5 328.129 347.5H335.879C337.591 347.5 339.267 347.012 340.711 346.093L347.938 341.494C348.969 340.838 349.855 339.98 350.543 338.971L355.436 331.794C356.455 330.299 357 328.533 357 326.724V311.588C357 309.587 356.297 307.661 355.292 305.931C354.486 304.544 353.659 302.858 352.998 301M338.5 276.5L336.732 279.394C334.558 282.95 335.18 287.544 338.221 290.394C339.994 292.057 341 294.379 341 296.81V302.5M341 302.5L352.998 301M341 302.5C337.536 303.566 336.599 307.666 335.462 311.107C335.126 312.124 334.381 312.862 333 313H321.5M324.5 327.5C324.363 326.403 324.722 324.132 326.859 322.471C327.853 321.698 329.151 321.5 330.41 321.5H332.5C337.194 321.5 341 317.694 341 313M347 321.5C350.333 319.667 356 314.5 352 308.5M324.5 290.5C322.5 291.667 319.7 296.1 324.5 304.5M324.5 280C325.472 282.673 323.492 285.5 320.648 285.5H318M313 327.5C315.667 334.167 324.1 343.9 336.5 329.5M328.5 337.5C331 338.333 335.7 341.2 334.5 346M344.5 327.5C344.667 329.833 346.4 334.5 352 334.5" stroke="url(#paint8_radial_128_6)" stroke-width="2" stroke-linecap="round"/>
<defs>
<clipPath id="paint1_diamond_128_6_clip_path"><path d="M289.223 153.6V154.6C288.156 154.633 287.34 154.767 286.773 155C286.206 155.2 285.823 155.6 285.623 156.2C285.456 156.767 285.373 157.667 285.373 158.9V183.7C285.373 184.9 285.473 185.8 285.673 186.4C285.873 187 286.24 187.4 286.773 187.6C287.34 187.8 288.156 187.933 289.223 188V189C288.356 188.933 287.256 188.9 285.923 188.9C284.59 188.867 283.24 188.85 281.873 188.85C280.373 188.85 278.956 188.867 277.623 188.9C276.323 188.9 275.273 188.933 274.473 189V188C275.606 187.933 276.456 187.8 277.023 187.6C277.623 187.4 278.023 187 278.223 186.4C278.423 185.8 278.523 184.9 278.523 183.7V156.5L278.873 156.55L266.473 189.15H265.673L252.473 156.8V181.6C252.473 183.2 252.573 184.45 252.773 185.35C252.973 186.217 253.406 186.85 254.073 187.25C254.773 187.617 255.823 187.867 257.223 188V189C256.59 188.933 255.773 188.9 254.773 188.9C253.773 188.867 252.823 188.85 251.923 188.85C251.123 188.85 250.306 188.867 249.473 188.9C248.673 188.9 248.006 188.933 247.473 189V188C248.573 187.867 249.39 187.617 249.923 187.25C250.49 186.883 250.856 186.283 251.023 185.45C251.223 184.617 251.323 183.467 251.323 182V158.9C251.323 157.667 251.223 156.767 251.023 156.2C250.856 155.6 250.49 155.2 249.923 155C249.39 154.767 248.573 154.633 247.473 154.6V153.6C248.006 153.633 248.673 153.667 249.473 153.7C250.306 153.733 251.123 153.75 251.923 153.75C253.156 153.75 254.356 153.733 255.523 153.7C256.69 153.667 257.723 153.633 258.623 153.6L269.373 180.45L268.273 181.35L278.723 153.75C279.223 153.75 279.74 153.75 280.273 153.75C280.84 153.75 281.373 153.75 281.873 153.75C283.24 153.75 284.59 153.733 285.923 153.7C287.256 153.667 288.356 153.633 289.223 153.6Z"/></clipPath><clipPath id="paint2_diamond_128_6_clip_path"><path d="M241.823 153.6C241.69 154.967 241.59 156.3 241.523 157.6C241.49 158.867 241.473 159.833 241.473 160.5C241.473 161.133 241.49 161.75 241.523 162.35C241.556 162.917 241.59 163.4 241.623 163.8H240.473C240.206 161.5 239.773 159.7 239.173 158.4C238.573 157.067 237.756 156.133 236.723 155.6C235.723 155.033 234.406 154.75 232.773 154.75H230.023C229.023 154.75 228.256 154.833 227.723 155C227.19 155.167 226.823 155.517 226.623 156.05C226.456 156.583 226.373 157.4 226.373 158.5V184.1C226.373 185.167 226.456 185.983 226.623 186.55C226.823 187.083 227.19 187.433 227.723 187.6C228.256 187.767 229.023 187.85 230.023 187.85H232.873C234.573 187.85 235.99 187.533 237.123 186.9C238.29 186.267 239.223 185.233 239.923 183.8C240.623 182.333 241.14 180.333 241.473 177.8H242.623C242.523 178.833 242.473 180.167 242.473 181.8C242.473 182.5 242.49 183.517 242.523 184.85C242.59 186.183 242.69 187.567 242.823 189C241.123 188.933 239.206 188.9 237.073 188.9C234.94 188.867 233.04 188.85 231.373 188.85C230.606 188.85 229.59 188.85 228.323 188.85C227.09 188.85 225.74 188.867 224.273 188.9C222.84 188.9 221.373 188.917 219.873 188.95C218.406 188.95 217.006 188.967 215.673 189V188C216.773 187.933 217.59 187.8 218.123 187.6C218.69 187.4 219.056 187 219.223 186.4C219.423 185.8 219.523 184.9 219.523 183.7V158.9C219.523 157.667 219.423 156.767 219.223 156.2C219.056 155.6 218.69 155.2 218.123 155C217.59 154.767 216.773 154.633 215.673 154.6V153.6C217.006 153.633 218.406 153.667 219.873 153.7C221.373 153.7 222.84 153.717 224.273 153.75C225.74 153.75 227.09 153.75 228.323 153.75C229.59 153.75 230.606 153.75 231.373 153.75C232.906 153.75 234.64 153.75 236.573 153.75C238.54 153.717 240.29 153.667 241.823 153.6ZM233.773 170.7C233.773 170.7 233.773 170.867 233.773 171.2C233.773 171.533 233.773 171.7 233.773 171.7H224.873C224.873 171.7 224.873 171.533 224.873 171.2C224.873 170.867 224.873 170.7 224.873 170.7H233.773ZM235.223 164.1C235.09 166 235.023 167.45 235.023 168.45C235.056 169.45 235.073 170.367 235.073 171.2C235.073 172.033 235.09 172.95 235.123 173.95C235.156 174.95 235.24 176.4 235.373 178.3H234.223C234.056 177.167 233.79 176.1 233.423 175.1C233.09 174.067 232.54 173.25 231.773 172.65C231.04 172.017 229.973 171.7 228.573 171.7V170.7C229.606 170.7 230.44 170.483 231.073 170.05C231.74 169.617 232.273 169.067 232.673 168.4C233.073 167.7 233.373 166.983 233.573 166.25C233.806 165.483 233.973 164.767 234.073 164.1H235.223Z"/></clipPath><clipPath id="paint3_diamond_128_6_clip_path"><path d="M212.056 153.6C211.923 155.133 211.823 156.633 211.756 158.1C211.723 159.533 211.706 160.633 211.706 161.4C211.706 162.167 211.723 162.883 211.756 163.55C211.789 164.217 211.823 164.8 211.856 165.3H210.706C210.239 162.633 209.673 160.55 209.006 159.05C208.339 157.517 207.456 156.417 206.356 155.75C205.289 155.083 203.873 154.75 202.106 154.75H200.506V183.25C200.506 184.617 200.623 185.633 200.856 186.3C201.123 186.967 201.639 187.417 202.406 187.65C203.173 187.85 204.289 187.967 205.756 188V189C204.756 188.933 203.456 188.9 201.856 188.9C200.256 188.867 198.623 188.85 196.956 188.85C195.223 188.85 193.589 188.867 192.056 188.9C190.556 188.9 189.339 188.933 188.406 189V188C189.839 187.967 190.939 187.85 191.706 187.65C192.473 187.417 192.989 186.967 193.256 186.3C193.523 185.633 193.656 184.617 193.656 183.25V154.75H192.006C190.273 154.75 188.856 155.083 187.756 155.75C186.656 156.417 185.773 157.517 185.106 159.05C184.439 160.55 183.889 162.633 183.456 165.3H182.306C182.373 164.8 182.406 164.217 182.406 163.55C182.439 162.883 182.456 162.167 182.456 161.4C182.456 160.633 182.423 159.533 182.356 158.1C182.323 156.633 182.239 155.133 182.106 153.6C183.573 153.633 185.189 153.667 186.956 153.7C188.722 153.733 190.489 153.75 192.256 153.75C194.023 153.75 195.639 153.75 197.106 153.75C198.539 153.75 200.139 153.75 201.906 153.75C203.673 153.75 205.439 153.733 207.206 153.7C208.973 153.667 210.589 153.633 212.056 153.6Z"/></clipPath><clipPath id="paint4_diamond_128_6_clip_path"><path d="M165.489 153C167.356 153 168.789 153.2 169.789 153.6C170.789 154 171.656 154.433 172.389 154.9C172.789 155.133 173.106 155.317 173.339 155.45C173.606 155.55 173.856 155.6 174.089 155.6C174.422 155.6 174.656 155.417 174.789 155.05C174.956 154.683 175.089 154.133 175.189 153.4H176.339C176.306 154.033 176.256 154.767 176.189 155.6C176.156 156.433 176.122 157.55 176.089 158.95C176.089 160.317 176.089 162.133 176.089 164.4H174.939C174.839 162.7 174.456 161.067 173.789 159.5C173.156 157.933 172.239 156.65 171.039 155.65C169.872 154.617 168.372 154.1 166.539 154.1C164.906 154.1 163.539 154.583 162.439 155.55C161.372 156.517 160.839 157.817 160.839 159.45C160.839 160.85 161.189 162.033 161.889 163C162.589 163.933 163.572 164.85 164.839 165.75C166.139 166.617 167.672 167.617 169.439 168.75C171.072 169.817 172.539 170.883 173.839 171.95C175.139 172.983 176.156 174.133 176.889 175.4C177.656 176.667 178.039 178.217 178.039 180.05C178.039 182.217 177.506 184.017 176.439 185.45C175.372 186.883 173.939 187.95 172.139 188.65C170.339 189.35 168.372 189.7 166.239 189.7C164.272 189.7 162.706 189.5 161.539 189.1C160.406 188.7 159.422 188.283 158.589 187.85C157.856 187.383 157.289 187.15 156.889 187.15C156.556 187.15 156.306 187.333 156.139 187.7C156.006 188.067 155.889 188.617 155.789 189.35H154.639C154.706 188.583 154.739 187.683 154.739 186.65C154.772 185.617 154.789 184.283 154.789 182.65C154.822 180.983 154.839 178.883 154.839 176.35H155.989C156.122 178.483 156.489 180.483 157.089 182.35C157.722 184.183 158.672 185.667 159.939 186.8C161.239 187.933 162.956 188.5 165.089 188.5C166.256 188.5 167.306 188.3 168.239 187.9C169.206 187.467 169.972 186.817 170.539 185.95C171.106 185.05 171.389 183.917 171.389 182.55C171.389 181.183 171.072 179.983 170.439 178.95C169.806 177.917 168.922 176.95 167.789 176.05C166.656 175.15 165.322 174.233 163.789 173.3C162.222 172.3 160.756 171.283 159.389 170.25C158.022 169.217 156.922 168.05 156.089 166.75C155.289 165.417 154.889 163.817 154.889 161.95C154.889 159.883 155.389 158.2 156.389 156.9C157.389 155.567 158.689 154.583 160.289 153.95C161.922 153.317 163.656 153 165.489 153Z"/></clipPath><clipPath id="paint5_diamond_128_6_clip_path"><path d="M151.024 153.6V154.6C150.357 154.8 149.657 155.317 148.924 156.15C148.19 156.95 147.39 158.2 146.524 159.9L136.874 179.05H135.024L123.324 157.45C122.69 156.283 122.14 155.533 121.674 155.2C121.207 154.833 120.79 154.65 120.424 154.65V153.6C121.224 153.633 122.057 153.683 122.924 153.75C123.824 153.783 124.79 153.8 125.824 153.8C127.157 153.8 128.59 153.783 130.124 153.75C131.657 153.717 133.09 153.667 134.424 153.6V154.65C133.59 154.65 132.84 154.717 132.174 154.85C131.507 154.983 131.057 155.267 130.824 155.7C130.59 156.133 130.674 156.767 131.074 157.6L139.174 173.1L137.974 174.5L143.674 163.2C144.774 161 145.34 159.283 145.374 158.05C145.44 156.817 145.09 155.95 144.324 155.45C143.59 154.917 142.54 154.633 141.174 154.6V153.6C142.274 153.633 143.307 153.667 144.274 153.7C145.274 153.733 146.257 153.75 147.224 153.75C148.024 153.75 148.724 153.733 149.324 153.7C149.957 153.667 150.524 153.633 151.024 153.6ZM139.924 172V183.7C139.924 184.9 140.024 185.8 140.224 186.4C140.424 187 140.79 187.4 141.324 187.6C141.89 187.8 142.707 187.933 143.774 188V189C142.94 188.933 141.857 188.9 140.524 188.9C139.19 188.867 137.857 188.85 136.524 188.85C135.09 188.85 133.707 188.867 132.374 188.9C131.074 188.9 130.024 188.933 129.224 189V188C130.324 187.933 131.14 187.8 131.674 187.6C132.24 187.4 132.607 187 132.774 186.4C132.974 185.8 133.074 184.9 133.074 183.7V173.45L136.874 176.55L139.924 172Z"/></clipPath><clipPath id="paint6_diamond_128_6_clip_path"><path d="M105.7 153C107.567 153 109 153.2 110 153.6C111 154 111.867 154.433 112.6 154.9C113 155.133 113.317 155.317 113.55 155.45C113.817 155.55 114.067 155.6 114.3 155.6C114.633 155.6 114.867 155.417 115 155.05C115.167 154.683 115.3 154.133 115.4 153.4H116.55C116.517 154.033 116.467 154.767 116.4 155.6C116.367 156.433 116.333 157.55 116.3 158.95C116.3 160.317 116.3 162.133 116.3 164.4H115.15C115.05 162.7 114.667 161.067 114 159.5C113.367 157.933 112.45 156.65 111.25 155.65C110.083 154.617 108.583 154.1 106.75 154.1C105.117 154.1 103.75 154.583 102.65 155.55C101.583 156.517 101.05 157.817 101.05 159.45C101.05 160.85 101.4 162.033 102.1 163C102.8 163.933 103.783 164.85 105.05 165.75C106.35 166.617 107.883 167.617 109.65 168.75C111.283 169.817 112.75 170.883 114.05 171.95C115.35 172.983 116.367 174.133 117.1 175.4C117.867 176.667 118.25 178.217 118.25 180.05C118.25 182.217 117.717 184.017 116.65 185.45C115.583 186.883 114.15 187.95 112.35 188.65C110.55 189.35 108.583 189.7 106.45 189.7C104.483 189.7 102.917 189.5 101.75 189.1C100.617 188.7 99.6333 188.283 98.8 187.85C98.0666 187.383 97.5 187.15 97.1 187.15C96.7666 187.15 96.5166 187.333 96.35 187.7C96.2166 188.067 96.1 188.617 96 189.35H94.85C94.9166 188.583 94.95 187.683 94.95 186.65C94.9833 185.617 95 184.283 95 182.65C95.0333 180.983 95.05 178.883 95.05 176.35H96.2C96.3333 178.483 96.7 180.483 97.3 182.35C97.9333 184.183 98.8833 185.667 100.15 186.8C101.45 187.933 103.167 188.5 105.3 188.5C106.467 188.5 107.517 188.3 108.45 187.9C109.417 187.467 110.183 186.817 110.75 185.95C111.317 185.05 111.6 183.917 111.6 182.55C111.6 181.183 111.283 179.983 110.65 178.95C110.017 177.917 109.133 176.95 108 176.05C106.867 175.15 105.533 174.233 104 173.3C102.433 172.3 100.967 171.283 99.6 170.25C98.2333 169.217 97.1333 168.05 96.3 166.75C95.5 165.417 95.1 163.817 95.1 161.95C95.1 159.883 95.6 158.2 96.6 156.9C97.6 155.567 98.9 154.583 100.5 153.95C102.133 153.317 103.867 153 105.7 153Z"/></clipPath><clipPath id="paint7_diamond_128_6_clip_path"><path d="M292 275L292.755 274.344L292.456 274H292V275ZM279.901 275V274H279.494L279.202 274.284L279.901 275ZM264 290.521L263.301 289.805L263 290.1V290.521H264ZM264 312.078H263V312.491L263.292 312.784L264 312.078ZM298.81 347L298.102 347.706L299.169 348.776L299.737 347.376L298.81 347ZM305.5 330.5L306.427 330.876L306.5 330.695V330.5H305.5ZM305.5 290.521H306.5V290.147L306.255 289.865L305.5 290.521ZM275.603 323.719L274.895 324.425L274.895 324.425L275.603 323.719ZM292 275V274H279.901V275V276H292V275ZM264 290.521H263V312.078H264H265V290.521H264ZM298.81 347L299.737 347.376L306.427 330.876L305.5 330.5L304.573 330.124L297.883 346.624L298.81 347ZM305.5 290.521L306.255 289.865L292.755 274.344L292 275L291.245 275.656L304.745 291.177L305.5 290.521ZM264 312.078L263.292 312.784L274.895 324.425L275.603 323.719L276.312 323.013L264.708 311.372L264 312.078ZM275.603 323.719L274.895 324.425L298.102 347.706L298.81 347L299.518 346.294L276.312 323.013L275.603 323.719ZM279.901 275L279.202 274.284L274.905 278.479L275.603 279.195L276.302 279.91L280.599 275.716L279.901 275ZM275.603 279.195L274.905 278.479L263.301 289.805L264 290.521L264.699 291.237L276.302 279.91L275.603 279.195ZM305.5 330.5H306.5V314.5H305.5H304.5V330.5H305.5ZM305.5 314.5H306.5V290.521H305.5H304.5V314.5H305.5ZM275.603 279.195L274.907 279.912L298.113 302.448L298.81 301.731L299.507 301.013L276.3 278.477L275.603 279.195ZM298.81 301.731L297.924 302.195L304.614 314.964L305.5 314.5L306.386 314.036L299.696 301.266L298.81 301.731ZM305.5 290.521L304.641 290.008L297.951 301.218L298.81 301.731L299.669 302.243L306.359 291.033L305.5 290.521ZM298.81 301.731L298.122 301.005L274.916 322.993L275.603 323.719L276.291 324.444L299.498 302.456L298.81 301.731ZM298.81 301.731H297.81V347H298.81H299.81V301.731H298.81Z"/></clipPath><radialGradient id="paint0_radial_128_6" cx="0" cy="0" r="1" gradientUnits="userSpaceOnUse" gradientTransform="translate(250 250) rotate(90) scale(210)">
<stop stop-color="#0D304E"/>
<stop offset="0.950985" stop-color="#0D304E"/>
<stop offset="0.986738" stop-color="#135BA6"/>
<stop offset="1" stop-color="#11457E"/>
</radialGradient>
<linearGradient id="paint1_diamond_128_6" x1="0" y1="0" x2="500" y2="500" gradientUnits="userSpaceOnUse">
<stop offset="0.706731" stop-color="#89FBFD"/>
<stop offset="0.9999" stop-color="#0D66BA"/>
</linearGradient>
<linearGradient id="paint2_diamond_128_6" x1="0" y1="0" x2="500" y2="500" gradientUnits="userSpaceOnUse">
<stop offset="0.706731" stop-color="#89FBFD"/>
<stop offset="0.9999" stop-color="#0D66BA"/>
</linearGradient>
<linearGradient id="paint3_diamond_128_6" x1="0" y1="0" x2="500" y2="500" gradientUnits="userSpaceOnUse">
<stop offset="0.706731" stop-color="#89FBFD"/>
<stop offset="0.9999" stop-color="#0D66BA"/>
</linearGradient>
<linearGradient id="paint4_diamond_128_6" x1="0" y1="0" x2="500" y2="500" gradientUnits="userSpaceOnUse">
<stop offset="0.706731" stop-color="#89FBFD"/>
<stop offset="0.9999" stop-color="#0D66BA"/>
</linearGradient>
<linearGradient id="paint5_diamond_128_6" x1="0" y1="0" x2="500" y2="500" gradientUnits="userSpaceOnUse">
<stop offset="0.706731" stop-color="#89FBFD"/>
<stop offset="0.9999" stop-color="#0D66BA"/>
</linearGradient>
<linearGradient id="paint6_diamond_128_6" x1="0" y1="0" x2="500" y2="500" gradientUnits="userSpaceOnUse">
<stop offset="0.706731" stop-color="#89FBFD"/>
<stop offset="0.9999" stop-color="#0D66BA"/>
</linearGradient>
<linearGradient id="paint7_diamond_128_6" x1="0" y1="0" x2="500" y2="500" gradientUnits="userSpaceOnUse">
<stop offset="0.528846" stop-color="#89FBFD"/>
<stop offset="0.9999" stop-color="#0D66BA"/>
</linearGradient>
<radialGradient id="paint8_radial_128_6" cx="0" cy="0" r="1" gradientUnits="userSpaceOnUse" gradientTransform="translate(334 310.75) rotate(90) scale(36.75 19.6822)">
<stop offset="0.798077" stop-color="#B2FDAF"/>
<stop offset="1" stop-color="#22EE1B"/>
</radialGradient>
</defs>
</svg>
